<svg width="100" height="100" viewBox="0 0 100 100" fill="none" xmlns="http://www.w3.org/2000/svg">
<g clip-path="url(#clip0)">
<path d="M82.2644 32.5713L93.3001 20.5327C93.4974 20.3169 93.6128 20.0331 93.6391 19.7324C93.9039 19.7037 94.1628 19.5844 94.3654 19.3626C97.2487 16.2168 97.2487 11.0986 94.3654 7.9528C92.9689 6.42784 91.1121 5.58839 89.1363 5.58839C87.1605 5.58839 85.3037 6.42849 83.9072 7.9528C83.6998 8.17913 83.5904 8.46808 83.5671 8.76289C83.2969 8.79029 83.0344 8.90443 82.8389 9.11837L71.805 21.1596L56.4143 4.36738C55.9659 3.87689 55.1714 3.87819 54.723 4.36738L43.3502 16.781C42.8833 17.2904 42.8833 18.1162 43.3502 18.6256L58.738 35.4177L48.7622 46.3025C48.6396 46.4362 48.5452 46.5967 48.486 46.7741L44.8005 57.6888C44.0532 59.8954 44.7299 61.0857 45.1998 61.5984C45.5185 61.9467 46.1228 62.3987 47.111 62.3987C47.5785 62.3987 48.1321 62.2976 48.7813 62.0354L58.7619 58.0241C58.9275 57.9621 59.0835 57.8591 59.2156 57.7149C59.2162 57.7143 59.2168 57.7136 59.2168 57.7136L69.1956 46.8282L84.584 63.6178C84.8081 63.8624 85.1124 64 85.4293 64C85.7467 64 86.051 63.8624 86.2752 63.6178L97.6498 51.2042C98.1167 50.6947 98.1167 49.869 97.6498 49.3596L82.2644 32.5713ZM89.1369 8.19804C90.473 8.19804 91.7297 8.76615 92.6748 9.79801C94.6255 11.927 94.6255 15.3898 92.6748 17.5187C92.5971 17.6035 92.5367 17.6994 92.4853 17.7992L85.342 10.0048C85.4335 9.94803 85.5213 9.88215 85.599 9.79736C86.5436 8.76615 87.8002 8.19804 89.1369 8.19804ZM57.7516 30.6504L60.8279 27.2933C61.2948 26.7839 61.2948 25.9575 60.8279 25.4481C60.361 24.9393 59.6042 24.9387 59.1367 25.4481L56.0609 28.8052L51.9163 24.2825L54.9909 20.928C55.4577 20.4186 55.4577 19.5929 54.9909 19.0834C54.524 18.574 53.7665 18.574 53.3002 19.0834L50.2257 22.438L45.8867 17.7033L55.5695 7.13422L70.1144 23.0041L60.4286 33.5725L57.7516 30.6504ZM58.3715 54.9455L54.4379 50.653C53.9716 50.1436 53.2135 50.1436 52.7472 50.653C52.2804 51.1624 52.2804 51.9882 52.7472 52.4976L56.205 56.2708L47.954 59.5875C47.2695 59.8628 46.9359 59.7839 46.897 59.7604C46.8635 59.7043 46.7906 59.3403 47.0441 58.5915C47.0441 58.5915 47.0441 58.5909 47.0441 58.5902L50.6387 47.9442L61.2518 36.3642C61.2596 36.3563 61.2685 36.3505 61.2763 36.3426C61.2841 36.3348 61.2888 36.3244 61.296 36.3159L72.6013 23.9799C72.6187 23.9629 72.6384 23.9505 72.6551 23.9316C72.6719 23.9134 72.6832 23.8918 72.6994 23.8729L83.6842 11.8865L90.763 19.6105L68.3915 44.0157C68.3772 44.0301 68.3604 44.0405 68.3461 44.0561C68.3317 44.0718 68.3222 44.0894 68.309 44.1051L58.3715 54.9455ZM85.4293 60.8496L81.0873 56.113L84.1637 52.7565C84.6306 52.2471 84.6306 51.4214 84.1637 50.912C83.6974 50.4025 82.9394 50.4025 82.4731 50.912L79.3967 54.2684L75.2532 49.747L78.3302 46.3899C78.7971 45.8805 78.7971 45.0547 78.3302 44.5453C77.8639 44.0359 77.1059 44.0359 76.6396 44.5453L73.5626 47.9025L70.8862 44.983L80.5732 34.4159L95.1127 50.2812L85.4293 60.8496Z" fill="#036C7F"/>
<path fill-rule="evenodd" clip-rule="evenodd" d="M8.0107 0.19135L10.0744 0.378955L12.5573 0.665449L14.5027 1.05452C14.8473 1.12344 15.1851 1.2225 15.5124 1.35055L17.3052 2.05207L20.0275 3.49332C20.4272 3.70494 20.813 3.96494 21.1637 4.28081C22.1088 5.13228 22.8508 5.92131 23.4079 6.83229C23.9716 7.75409 24.3141 8.74789 24.5367 9.9736C24.5954 10.2969 24.6166 10.6153 24.6166 10.9174V13.2814C24.6166 14.1297 24.4368 14.9683 24.089 15.7418L23.645 17.2513L23.2618 18.6882L22.6809 20.2374L22.2068 21.47L21.6161 22.8483L20.8463 24.1954L20.1757 25.4407L19.3723 26.6458L18.4247 27.783L17.7191 28.7532L17.0054 29.913L16.4714 30.8919L15.7378 32.4509L15.7364 32.4538L15.0933 33.8319L14.4448 35.4067L13.7048 37.1641L13.1639 38.6067L12.709 40.1534L12.249 41.8092L11.8883 43.3423L11.6178 45.0556L11.4391 46.7534V49.9756C11.4391 50.4292 11.5092 50.8547 11.6581 51.2334C12.0643 52.2662 12.4855 52.9924 13.0525 53.5859C13.6213 54.1815 14.3918 54.7007 15.5792 55.2337C16.0015 55.4233 16.4841 55.514 16.9968 55.514H26.2889L28.0326 55.7077L29.6552 55.8987L31.2513 56.1979L31.8946 56.4124C32.7941 56.7122 33.5908 57.2594 34.1936 57.9913C34.6597 58.5573 35.0026 59.2235 35.1814 59.9459C35.7744 62.3412 36.083 64.1041 36.2832 66.1736C36.8707 65.4871 37.7439 65.0467 38.7302 65.0467H40.9191C41.3675 65.0467 41.824 65.104 42.2701 65.2308C44.55 65.879 46.2854 66.6332 47.4731 67.8978C48.6884 69.1918 49.2006 70.8758 49.3797 73.0681L49.383 73.1088V77.1682L49.383 77.1705C49.3754 80.6064 49.1055 82.9161 48.3308 85.4897C47.5978 87.9248 45.2738 89.3832 42.853 89.3832H13.0559V87.3832H42.853C44.5165 87.3832 45.9714 86.3892 46.4157 84.9132C47.1176 82.5815 47.3756 80.4775 47.383 77.1677C47.383 77.1671 47.383 77.1666 47.383 77.166L47.383 73.1909C47.2182 71.229 46.781 70.0824 46.0153 69.267C45.2167 68.4167 43.9295 67.7819 41.7232 67.1546C41.4695 67.0825 41.1983 67.0467 40.9191 67.0467H38.7302C37.9998 67.0467 37.433 67.6841 37.5183 68.4095C37.5564 68.733 37.5474 69.1863 37.4226 69.5784C37.3658 69.757 37.2332 70.0927 36.9099 70.329C36.7284 70.4617 36.4986 70.5527 36.2378 70.5603C35.9863 70.5677 35.7705 70.496 35.6057 70.4094C35.5567 70.3837 35.5112 70.3565 35.4691 70.3289C34.619 69.772 34.4755 68.7711 34.4412 68.2434C34.2519 65.3299 33.9776 63.406 33.24 60.4266C33.1355 60.0046 32.9329 59.6066 32.6497 59.2627C32.2859 58.821 31.805 58.4907 31.2622 58.3098L30.7484 58.1385L29.3537 57.877L27.8053 57.6948L27.7989 57.6941L26.1781 57.514H16.9968C16.2537 57.514 15.4835 57.383 14.7602 57.0583C13.4277 56.4602 12.4113 55.8103 11.6062 54.9674C10.7991 54.1225 10.2592 53.1409 9.79689 51.9654C9.53998 51.3121 9.43905 50.6309 9.43905 49.9756V46.6484L9.63417 44.7948L9.92439 42.9567L10.3113 41.3123L10.786 39.6035L11.2657 37.9726L11.8462 36.4246L12.5985 34.6379L12.6015 34.6306L13.2615 33.0278L13.9254 31.6051L13.9268 31.6022L14.6871 29.9865L15.2746 28.9093L16.0562 27.6392L16.846 26.5533L17.7675 25.4475L18.4594 24.4096L19.0973 23.225L19.8228 21.9553L20.3536 20.7168L20.8127 19.5233L21.3546 18.078L21.7191 16.7113L22.2099 15.0428L22.2581 14.9366C22.4944 14.4168 22.6166 13.8524 22.6166 13.2814V10.9174C22.6166 10.7072 22.6017 10.5117 22.5689 10.3309C22.379 9.28487 22.1068 8.53827 21.7016 7.87568C21.2898 7.20228 20.7088 6.56295 19.825 5.76674C19.6107 5.57371 19.364 5.40502 19.0917 5.2609L16.4702 3.873L14.7836 3.21304C14.5654 3.12767 14.3402 3.06163 14.1104 3.01568L12.246 2.6428L9.86917 2.36855L7.81618 2.18191L5.94702 1.99496L6.14603 0.00488281L8.0107 0.19135Z" fill="#036C7F"/>
<path d="M11.6541 100.439L15.112 89.5981H20.0653L14.084 100.626L11.6541 100.439Z" fill="#444444"/>
<path fill-rule="evenodd" clip-rule="evenodd" d="M14.7466 89.0981H20.9052L14.3688 101.15L10.9856 100.889L14.7466 89.0981ZM15.4773 90.0981L12.3223 99.9892L13.7989 100.103L19.2252 90.0981H15.4773Z" fill="#444444"/>
<path d="M41.0933 90.0653L45.0185 89.8784L44.1774 101H42.7755L41.0933 90.0653Z" fill="#444444"/>
<path fill-rule="evenodd" clip-rule="evenodd" d="M45.5598 89.3521L44.641 101.5H42.3466L40.5146 89.5923L45.5598 89.3521ZM41.672 90.5383L43.2045 100.5H43.7138L44.4773 90.4047L41.672 90.5383Z" fill="#444444"/>
</g>
<defs>
<clipPath id="clip0">
<rect width="100" height="100" fill="white"/>
</clipPath>
</defs>
</svg>
