<svg width="100" height="100" viewBox="0 0 100 100" fill="none" xmlns="http://www.w3.org/2000/svg">
<g clip-path="url(#clip0)">
<path fill-rule="evenodd" clip-rule="evenodd" d="M8.0107 0.19135L10.0744 0.378955L12.5573 0.665449L14.5027 1.05452C14.8473 1.12344 15.1851 1.2225 15.5124 1.35055L17.3052 2.05207L20.0275 3.49332C20.4272 3.70494 20.813 3.96494 21.1637 4.28081C22.1088 5.13228 22.8508 5.92131 23.4079 6.83229C23.9716 7.75409 24.3141 8.74789 24.5367 9.9736C24.5954 10.2969 24.6166 10.6153 24.6166 10.9174V13.2814C24.6166 14.1297 24.4368 14.9683 24.089 15.7418L23.645 17.2513L23.2618 18.6882L22.6809 20.2374L22.2068 21.47L21.6161 22.8483L20.8463 24.1954L20.1757 25.4407L19.3723 26.6458L18.4247 27.783L17.7191 28.7532L17.0054 29.913L16.4714 30.8919L15.7378 32.4509L15.7364 32.4538L15.0933 33.8319L14.4448 35.4067L13.7048 37.1641L13.1639 38.6067L12.709 40.1534L12.249 41.8092L11.8883 43.3423L11.6178 45.0556L11.4391 46.7534V49.9756C11.4391 50.4292 11.5092 50.8547 11.6581 51.2334C12.0643 52.2662 12.4855 52.9924 13.0525 53.5859C13.6213 54.1815 14.3918 54.7007 15.5792 55.2337C16.0015 55.4233 16.4841 55.514 16.9968 55.514H26.2889L28.0326 55.7077L29.6552 55.8987L31.2513 56.1979L31.8946 56.4124C32.7941 56.7122 33.5908 57.2594 34.1936 57.9913C34.6597 58.5573 35.0026 59.2235 35.1814 59.9459C35.7744 62.3412 36.083 64.1041 36.2832 66.1736C36.8707 65.4871 37.7439 65.0467 38.7302 65.0467H40.9191C41.3675 65.0467 41.824 65.104 42.2701 65.2308C44.55 65.879 46.2854 66.6332 47.4731 67.8978C48.6884 69.1918 49.2006 70.8758 49.3797 73.0681L49.383 73.1088V77.1682L49.383 77.1705C49.3754 80.6064 49.1055 82.9161 48.3308 85.4897C47.5978 87.9248 45.2738 89.3832 42.853 89.3832H13.0559V87.3832H42.853C44.5165 87.3832 45.9714 86.3892 46.4157 84.9132C47.1176 82.5815 47.3756 80.4775 47.383 77.1677C47.383 77.1671 47.383 77.1666 47.383 77.166L47.383 73.1909C47.2182 71.229 46.781 70.0824 46.0153 69.267C45.2167 68.4167 43.9295 67.7819 41.7232 67.1546C41.4695 67.0825 41.1983 67.0467 40.9191 67.0467H38.7302C37.9998 67.0467 37.433 67.6841 37.5183 68.4095C37.5564 68.733 37.5474 69.1863 37.4226 69.5784C37.3658 69.757 37.2332 70.0927 36.9099 70.329C36.7284 70.4617 36.4986 70.5527 36.2378 70.5603C35.9863 70.5677 35.7705 70.496 35.6057 70.4094C35.5567 70.3837 35.5112 70.3565 35.4691 70.3289C34.619 69.772 34.4755 68.7711 34.4412 68.2434C34.2519 65.3299 33.9776 63.406 33.24 60.4266C33.1355 60.0046 32.9329 59.6066 32.6497 59.2627C32.2859 58.821 31.805 58.4907 31.2622 58.3098L30.7484 58.1385L29.3537 57.877L27.8053 57.6948L27.7989 57.6941L26.1781 57.514H16.9968C16.2537 57.514 15.4835 57.383 14.7602 57.0583C13.4277 56.4602 12.4113 55.8103 11.6062 54.9674C10.7991 54.1225 10.2592 53.1409 9.79689 51.9654C9.53998 51.3121 9.43905 50.6309 9.43905 49.9756V46.6484L9.63417 44.7948L9.92439 42.9567L10.3113 41.3123L10.786 39.6035L11.2657 37.9726L11.8462 36.4246L12.5985 34.6379L12.6015 34.6306L13.2615 33.0278L13.9254 31.6051L13.9268 31.6022L14.6871 29.9865L15.2746 28.9093L16.0562 27.6392L16.846 26.5533L17.7675 25.4475L18.4594 24.4096L19.0973 23.225L19.8228 21.9553L20.3536 20.7168L20.8127 19.5233L21.3546 18.078L21.7191 16.7113L22.2099 15.0428L22.2581 14.9366C22.4944 14.4168 22.6166 13.8524 22.6166 13.2814V10.9174C22.6166 10.7072 22.6017 10.5117 22.5689 10.3309C22.379 9.28487 22.1068 8.53827 21.7016 7.87568C21.2898 7.20228 20.7088 6.56295 19.825 5.76674C19.6107 5.57371 19.364 5.40502 19.0917 5.2609L16.4702 3.873L14.7836 3.21304C14.5654 3.12767 14.3402 3.06163 14.1104 3.01568L12.246 2.6428L9.86917 2.36855L7.81618 2.18191L5.94702 1.99496L6.14603 0.00488281L8.0107 0.19135Z" fill="black"/>
<path d="M11.6541 100.439L15.112 89.5981H20.0653L14.084 100.626L11.6541 100.439Z" fill="black"/>
<path fill-rule="evenodd" clip-rule="evenodd" d="M14.7466 89.0981H20.9052L14.3688 101.15L10.9856 100.889L14.7466 89.0981ZM15.4773 90.0981L12.3223 99.9892L13.7989 100.103L19.2252 90.0981H15.4773Z" fill="black"/>
<path d="M41.0933 90.0653L45.0185 89.8784L44.1774 101H42.7755L41.0933 90.0653Z" fill="black"/>
<path fill-rule="evenodd" clip-rule="evenodd" d="M45.5598 89.3521L44.641 101.5H42.3466L40.5146 89.5923L45.5598 89.3521ZM41.672 90.5383L43.2045 100.5H43.7138L44.4773 90.4047L41.672 90.5383Z" fill="black"/>
<path d="M82.8339 24.8094L94.8729 14.7773C95.0881 14.5974 95.2139 14.3609 95.2426 14.1104C95.5315 14.0864 95.8139 13.987 96.035 13.8022C99.1804 11.1807 99.1804 6.9155 96.035 4.294C94.5116 3.0232 92.4859 2.32366 90.3305 2.32366C88.1751 2.32366 86.1495 3.02374 84.6261 4.294C84.3998 4.48261 84.2804 4.7234 84.255 4.96908C83.9602 4.99191 83.6739 5.08703 83.4606 5.26531L71.4237 15.2996L54.6337 1.30615C54.1446 0.897407 53.2779 0.898494 52.7888 1.30615L40.382 11.6508C39.8727 12.0753 39.8727 12.7635 40.382 13.188L57.1687 27.1815L46.286 36.2521C46.1523 36.3635 46.0493 36.4972 45.9847 36.6451L41.9642 45.7407C41.1489 47.5795 41.8872 48.5714 42.3998 48.9987C42.7474 49.2889 43.4067 49.6656 44.4848 49.6656C44.9948 49.6656 45.5987 49.5814 46.3069 49.3629L57.1948 46.0201C57.3754 45.9684 57.5456 45.8826 57.6898 45.7624C57.6904 45.7619 57.6911 45.7613 57.6911 45.7613L68.577 36.6902L85.3643 50.6815C85.6089 50.8853 85.9408 51 86.2865 51C86.6328 51 86.9647 50.8853 87.2093 50.6815L99.618 40.3368C100.127 39.9123 100.127 39.2242 99.618 38.7997L82.8339 24.8094ZM90.3312 4.49837C91.7888 4.49837 93.1596 4.97179 94.1907 5.83168C96.3187 7.6058 96.3187 10.4915 94.1907 12.2656C94.1059 12.3362 94.04 12.4161 93.984 12.4993L86.1913 6.00398C86.291 5.95669 86.3869 5.9018 86.4717 5.83113C87.5021 4.9718 88.873 4.49837 90.3312 4.49837ZM56.0926 23.2087L59.4486 20.4111C59.958 19.9866 59.958 19.2979 59.4486 18.8734C58.9393 18.4495 58.1137 18.4489 57.6037 18.8734L54.2483 21.671L49.7269 17.9021L53.0809 15.1067C53.5903 14.6822 53.5903 13.994 53.0809 13.5695C52.5716 13.145 51.7453 13.145 51.2366 13.5695L47.8825 16.365L43.1491 12.4194L53.7122 3.61185L69.5794 16.8368L59.013 25.6438L56.0926 23.2087ZM56.7689 43.4545L52.4777 39.8775C51.969 39.453 51.142 39.453 50.6334 39.8775C50.124 40.302 50.124 40.9901 50.6334 41.4146L54.4055 44.559L45.4043 47.3229C44.6576 47.5523 44.2937 47.4865 44.2513 47.467C44.2148 47.4202 44.1352 47.1169 44.4117 46.4929C44.4117 46.4929 44.4117 46.4924 44.4117 46.4919L48.3332 37.6202L59.911 27.9701C59.9195 27.9636 59.9293 27.9587 59.9378 27.9522C59.9462 27.9457 59.9515 27.937 59.9593 27.9299L72.2924 17.6499C72.3113 17.6358 72.3328 17.6254 72.351 17.6097C72.3693 17.5945 72.3817 17.5765 72.3993 17.5608L84.3828 7.5721L92.1051 14.0087L67.6998 34.3464C67.6842 34.3584 67.6659 34.3671 67.6503 34.3801C67.6346 34.3932 67.6242 34.4078 67.6098 34.4209L56.7689 43.4545ZM86.2865 48.3747L81.5498 44.4275L84.9058 41.6304C85.4152 41.2059 85.4152 40.5178 84.9058 40.0933C84.3972 39.6688 83.5702 39.6688 83.0615 40.0933L79.7055 42.8904L75.1853 39.1225L78.542 36.3249C79.0514 35.9004 79.0514 35.2123 78.542 34.7878C78.0333 34.3633 77.2064 34.3633 76.6977 34.7878L73.341 37.5854L70.4213 35.1525L80.9889 26.3466L96.8502 39.5677L86.2865 48.3747Z" fill="black"/>
</g>
<defs>
<clipPath id="clip0">
<rect width="100" height="100" fill="white"/>
</clipPath>
</defs>
</svg>
