<svg width="100" height="100" viewBox="0 0 100 100" fill="none" xmlns="http://www.w3.org/2000/svg">
<g clip-path="url(#clip0)">
<path fill-rule="evenodd" clip-rule="evenodd" d="M8.0107 0.19135L10.0744 0.378955L12.5573 0.665449L14.5027 1.05452C14.8473 1.12344 15.1851 1.2225 15.5124 1.35055L17.3052 2.05207L20.0275 3.49332C20.4272 3.70494 20.813 3.96494 21.1637 4.28081C22.1088 5.13228 22.8508 5.92131 23.4079 6.83229C23.9716 7.75409 24.3141 8.74789 24.5367 9.9736C24.5954 10.2969 24.6166 10.6153 24.6166 10.9174V13.2814C24.6166 14.1297 24.4368 14.9683 24.089 15.7418L23.645 17.2513L23.2618 18.6882L22.6809 20.2374L22.2068 21.47L21.6161 22.8483L20.8463 24.1954L20.1757 25.4407L19.3723 26.6458L18.4247 27.783L17.7191 28.7532L17.0054 29.913L16.4714 30.8919L15.7378 32.4509L15.7364 32.4538L15.0933 33.8319L14.4448 35.4067L13.7048 37.1641L13.1639 38.6067L12.709 40.1534L12.249 41.8092L11.8883 43.3423L11.6178 45.0556L11.4391 46.7534V49.9756C11.4391 50.4292 11.5092 50.8547 11.6581 51.2334C12.0643 52.2662 12.4855 52.9924 13.0525 53.5859C13.6213 54.1815 14.3918 54.7007 15.5792 55.2337C16.0015 55.4233 16.4841 55.514 16.9968 55.514H26.2889L28.0326 55.7077L29.6552 55.8987L31.2513 56.1979L31.8946 56.4124C32.7941 56.7122 33.5908 57.2594 34.1936 57.9913C34.6597 58.5573 35.0026 59.2235 35.1814 59.9459C35.7744 62.3412 36.083 64.1041 36.2832 66.1736C36.8707 65.4871 37.7439 65.0467 38.7302 65.0467H40.9191C41.3675 65.0467 41.824 65.104 42.2701 65.2308C44.55 65.879 46.2854 66.6332 47.4731 67.8978C48.6884 69.1918 49.2006 70.8758 49.3797 73.0681L49.383 73.1088V77.1682L49.383 77.1705C49.3754 80.6064 49.1055 82.9161 48.3308 85.4897C47.5978 87.9248 45.2738 89.3832 42.853 89.3832H13.0559V87.3832H42.853C44.5165 87.3832 45.9714 86.3892 46.4157 84.9132C47.1176 82.5815 47.3756 80.4775 47.383 77.1677C47.383 77.1671 47.383 77.1666 47.383 77.166L47.383 73.1909C47.2182 71.229 46.781 70.0824 46.0153 69.267C45.2167 68.4167 43.9295 67.7819 41.7232 67.1546C41.4695 67.0825 41.1983 67.0467 40.9191 67.0467H38.7302C37.9998 67.0467 37.433 67.6841 37.5183 68.4095C37.5564 68.733 37.5474 69.1863 37.4226 69.5784C37.3658 69.757 37.2332 70.0927 36.9099 70.329C36.7284 70.4617 36.4986 70.5527 36.2378 70.5603C35.9863 70.5677 35.7705 70.496 35.6057 70.4094C35.5567 70.3837 35.5112 70.3565 35.4691 70.3289C34.619 69.772 34.4755 68.7711 34.4412 68.2434C34.2519 65.3299 33.9776 63.406 33.24 60.4266C33.1355 60.0046 32.9329 59.6066 32.6497 59.2627C32.2859 58.821 31.805 58.4907 31.2622 58.3098L30.7484 58.1385L29.3537 57.877L27.8053 57.6948L27.7989 57.6941L26.1781 57.514H16.9968C16.2537 57.514 15.4835 57.383 14.7602 57.0583C13.4277 56.4602 12.4113 55.8103 11.6062 54.9674C10.7991 54.1225 10.2592 53.1409 9.79689 51.9654C9.53998 51.3121 9.43905 50.6309 9.43905 49.9756V46.6484L9.63417 44.7948L9.92439 42.9567L10.3113 41.3123L10.786 39.6035L11.2657 37.9726L11.8462 36.4246L12.5985 34.6379L12.6015 34.6306L13.2615 33.0278L13.9254 31.6051L13.9268 31.6022L14.6871 29.9865L15.2746 28.9093L16.0562 27.6392L16.846 26.5533L17.7675 25.4475L18.4594 24.4096L19.0973 23.225L19.8228 21.9553L20.3536 20.7168L20.8127 19.5233L21.3546 18.078L21.7191 16.7113L22.2099 15.0428L22.2581 14.9366C22.4944 14.4168 22.6166 13.8524 22.6166 13.2814V10.9174C22.6166 10.7072 22.6017 10.5117 22.5689 10.3309C22.379 9.28487 22.1068 8.53827 21.7016 7.87568C21.2898 7.20228 20.7088 6.56295 19.825 5.76674C19.6107 5.57371 19.364 5.40502 19.0917 5.2609L16.4702 3.873L14.7836 3.21304C14.5654 3.12767 14.3402 3.06163 14.1104 3.01568L12.246 2.6428L9.86917 2.36855L7.81618 2.18191L5.94702 1.99496L6.14603 0.00488281L8.0107 0.19135Z" fill="black"/>
<path d="M11.6541 100.439L15.112 89.5981H20.0653L14.084 100.626L11.6541 100.439Z" fill="black"/>
<path fill-rule="evenodd" clip-rule="evenodd" d="M14.7466 89.0981H20.9052L14.3688 101.15L10.9856 100.889L14.7466 89.0981ZM15.4773 90.0981L12.3223 99.9892L13.7989 100.103L19.2252 90.0981H15.4773Z" fill="black"/>
<path d="M41.0933 90.0653L45.0185 89.8784L44.1774 101H42.7755L41.0933 90.0653Z" fill="black"/>
<path fill-rule="evenodd" clip-rule="evenodd" d="M45.5598 89.3521L44.641 101.5H42.3466L40.5146 89.5923L45.5598 89.3521ZM41.672 90.5383L43.2045 100.5H43.7138L44.4773 90.4047L41.672 90.5383Z" fill="black"/>
<path d="M47.4288 1C47.7187 1 48.0092 1.11679 48.2179 1.34279L66.877 21.4405C67.8234 19.8128 68.8045 18.2703 69.5277 17.4914C71.3803 15.4935 73.5498 14.0478 75.8578 13.115V9.41942C75.8578 8.88328 76.1867 8.41093 76.6643 8.26428C79.3697 7.4228 82.1587 7.11999 84.9868 7.358C85.5672 7.40609 86.0157 7.92791 86.0157 8.55541V12.3402C89.2277 13.1023 92.283 14.8106 94.7785 17.4961C101.74 24.9948 101.74 37.1949 94.7785 44.6937C92.9415 46.6723 86.5623 50.4266 85.8413 50.8497C85.6739 50.9483 85.4902 51 85.3094 51C85.0215 51 84.7346 50.8786 84.5204 50.6478L66.3669 31.0949L63.9997 28.5451L44.2724 7.29226L41.9008 9.84673C41.6821 10.0823 41.3974 10.1942 41.1117 10.1942C40.826 10.1942 40.5414 10.0799 40.3226 9.84673C39.8918 9.3731 39.8916 8.61101 40.327 8.14219L43.4834 4.74249L46.6397 1.34279C46.8495 1.11679 47.1389 1 47.4288 1ZM47.4288 3.88787L45.855 5.58772L64.5359 25.7136C64.8529 25.1053 65.2471 24.3636 65.6868 23.5582L47.4288 3.88787ZM83.7836 9.68708C81.8662 9.61495 79.9538 9.84453 78.0899 10.3398V12.3871C79.9604 11.9183 81.8796 11.7629 83.7836 11.9504V9.68708ZM82.1531 14.2701C78.1509 14.2701 74.1504 15.9119 71.1058 19.1912C69.8916 20.4991 67.4229 25.0629 66.1751 27.4792L67.9495 29.3903L85.5056 48.3047C87.7489 46.9607 91.9861 44.3017 93.2003 42.9938C99.2918 36.4327 99.2918 25.7523 93.2003 19.1912C90.1557 15.9119 86.153 14.2701 82.1531 14.2701ZM86.1029 20.8347C87.5323 20.835 88.9624 21.4189 90.0483 22.5909C91.1041 23.7281 91.6788 25.2369 91.6788 26.8405C91.6788 28.4465 91.1019 29.9601 90.0483 31.0949L83.7313 37.8943C83.5214 38.1202 83.239 38.2464 82.9422 38.2464C82.6453 38.2464 82.3629 38.1179 82.1531 37.8943L75.8404 31.0949C75.4051 30.626 75.4051 29.8638 75.8404 29.395L82.1531 22.5909C83.2424 21.4177 84.6735 20.8344 86.1029 20.8347ZM86.0985 23.2342C85.2414 23.2342 84.3853 23.584 83.7313 24.2861L78.2033 30.2355L82.9422 35.3398L88.4702 29.3903C89.1018 28.7099 89.4467 27.8023 89.4467 26.8358C89.4467 25.8742 89.1018 24.9689 88.4702 24.2861C87.8161 23.5816 86.9579 23.2342 86.0985 23.2342ZM85.8631 25.8779C86.0119 25.8761 86.1595 25.9063 86.2972 25.9668C86.435 26.0272 86.5601 26.1168 86.6653 26.2301C86.8745 26.4555 86.9921 26.7612 86.9921 27.08C86.9921 27.3988 86.8745 27.7045 86.6653 27.9299C86.456 28.1553 86.1721 28.2819 85.8762 28.2819C85.5802 28.2819 85.2964 28.1553 85.0871 27.9299C84.8779 27.7045 84.7603 27.3988 84.7603 27.08C84.7603 26.7612 84.8779 26.4555 85.0871 26.2301C85.2932 26.0081 85.5717 25.8817 85.8631 25.8779V25.8779Z" fill="black"/>
</g>
<defs>
<clipPath id="clip0">
<rect width="100" height="100" fill="white"/>
</clipPath>
</defs>
</svg>
