<svg xmlns:dc="http://purl.org/dc/elements/1.1/" xmlns:cc="http://creativecommons.org/ns#" xmlns:rdf="http://www.w3.org/1999/02/22-rdf-syntax-ns#" xmlns:svg="http://www.w3.org/2000/svg" xmlns="http://www.w3.org/2000/svg" xmlns:sodipodi="http://sodipodi.sourceforge.net/DTD/sodipodi-0.dtd" xmlns:inkscape="http://www.inkscape.org/namespaces/inkscape" version="1.1" x="0px" y="0px" viewBox="0 0 32 40" style="enable-background:new 0 0 32 32;" xml:space="preserve"><style type="text/css">
	.st0{fill:none;stroke:#000000;stroke-linecap:round;stroke-linejoin:round;stroke-miterlimit:10;}
	.st1{fill:none;stroke:#010101;stroke-linecap:round;stroke-linejoin:round;stroke-miterlimit:10;}
	.st2{fill:none;stroke:#060707;stroke-linecap:round;stroke-linejoin:round;stroke-miterlimit:10;}
	.st3{fill:#010101;}
	.st4{fill:#FFFFFF;stroke:#010101;stroke-linecap:round;stroke-linejoin:round;stroke-miterlimit:10;}
</style><path style="" d="M 26.552734 6.203125 C 26.422859 6.203125 26.292719 6.251703 26.199219 6.3457031 L 17.839844 14.705078 C 17.415844 14.028078 16.976344 13.3865 16.652344 13.0625 C 15.822344 12.2315 14.850406 11.630187 13.816406 11.242188 L 13.816406 9.7050781 C 13.816406 9.4820781 13.669079 9.2856104 13.455078 9.2246094 C 12.243079 8.8746104 10.993564 8.7486562 9.7265625 8.8476562 C 9.4665625 8.8676562 9.265625 9.0847031 9.265625 9.3457031 L 9.265625 10.919922 C 7.8266254 11.236922 6.4578437 11.947453 5.3398438 13.064453 C 2.2208437 16.183453 2.2208438 21.257953 5.3398438 24.376953 C 6.1628438 25.199953 9.02075 26.7615 9.34375 26.9375 C 9.41875 26.9785 9.5010313 27 9.5820312 27 C 9.7110312 27 9.8395469 26.94952 9.9355469 26.853516 L 18.068359 18.720703 L 19.128906 17.660156 L 27.966797 8.8203125 L 29.029297 9.8828125 C 29.127297 9.9808125 29.254812 10.027344 29.382812 10.027344 C 29.510813 10.027344 29.638329 9.9798137 29.736328 9.8828125 C 29.929329 9.6858125 29.929422 9.3688281 29.734375 9.1738281 L 28.320312 7.7597656 L 26.90625 6.3457031 C 26.81225 6.2517031 26.682609 6.203125 26.552734 6.203125 z M 26.552734 7.4042969 L 27.257812 8.1113281 L 18.888672 16.482422 C 18.746672 16.229422 18.570047 15.920938 18.373047 15.585938 L 26.552734 7.4042969 z M 10.265625 9.8164062 C 11.124626 9.7864063 11.981406 9.8818953 12.816406 10.087891 L 12.816406 10.939453 C 11.978406 10.744453 11.118626 10.679813 10.265625 10.757812 L 10.265625 9.8164062 z M 10.996094 11.722656 C 12.789094 11.722656 14.581313 12.405531 15.945312 13.769531 C 16.489313 14.313531 17.595297 16.211797 18.154297 17.216797 L 17.359375 18.011719 L 9.4941406 25.878906 C 8.4891406 25.319906 6.590875 24.213922 6.046875 23.669922 C 3.317875 20.940922 3.317875 16.498531 6.046875 13.769531 C 7.410875 12.405531 9.2040926 11.722656 10.996094 11.722656 z M 9.2265625 14.453125 C 8.5861874 14.45325 7.9454843 14.696094 7.4589844 15.183594 C 6.9859843 15.656594 6.7285156 16.284172 6.7285156 16.951172 C 6.7285156 17.619172 6.9869844 18.248703 7.4589844 18.720703 L 10.289062 21.548828 C 10.383062 21.642828 10.509579 21.695312 10.642578 21.695312 C 10.775579 21.695312 10.902094 21.641833 10.996094 21.548828 L 13.824219 18.720703 C 14.019219 18.525703 14.019219 18.208672 13.824219 18.013672 L 10.996094 15.183594 C 10.508094 14.695594 9.8669375 14.453 9.2265625 14.453125 z M 9.2285156 15.451172 C 9.6125156 15.451172 9.9960624 15.596672 10.289062 15.888672 L 12.765625 18.363281 L 10.642578 20.486328 L 8.1660156 18.011719 C 7.8830156 17.728719 7.7285156 17.351219 7.7285156 16.949219 C 7.7285156 16.549219 7.8830156 16.172672 8.1660156 15.888672 C 8.4590156 15.595672 8.8435156 15.451172 9.2285156 15.451172 z M 9.3339844 16.550781 A 0.4999952 0.4999952 0 0 0 8.9746094 16.697266 A 0.4999952 0.4999952 0 0 0 8.9746094 17.404297 A 0.4999952 0.4999952 0 0 0 9.6816406 17.404297 A 0.4999952 0.4999952 0 0 0 9.6816406 16.697266 A 0.4999952 0.4999952 0 0 0 9.3339844 16.550781 z " fill="#000000" stroke="none"/><text x="0" y="47" fill="#000000" font-size="5px" font-weight="bold" font-family="'Helvetica Neue', Helvetica, Arial-Unicode, Arial, Sans-serif">Created by Jemis mali</text><text x="0" y="52" fill="#000000" font-size="5px" font-weight="bold" font-family="'Helvetica Neue', Helvetica, Arial-Unicode, Arial, Sans-serif">from the Noun Project</text></svg>