<svg xmlns="http://www.w3.org/2000/svg" xmlns:xlink="http://www.w3.org/1999/xlink" version="1.1" x="0px" y="0px" viewBox="0 0 160 200" style="enable-background:new 0 0 160 160;" xml:space="preserve"><path d="M150.925,68.692l-10.003-10.003c-0.885-0.885-2.177-1.23-3.382-0.905l-1.838,0.493c-2.262,0.605-4.695-0.045-6.409-1.76  c-1.807-1.806-2.403-4.522-1.52-6.918l0.318-0.863c0.472-1.281,0.156-2.72-0.81-3.686l-20.01-20.01  c-9.732-9.731-24.381-12.984-37.313-8.284L57.474,21.29c-2.823,1.025-4.897,3.388-5.548,6.32c-0.651,2.932,0.228,5.951,2.353,8.076  c2.196,2.195,5.424,3.064,8.425,2.266l0.41-0.109c8.668-2.304,17.915-0.36,24.944,5.109l-9.555,9.554  c-0.656,0.657-1.025,1.547-1.025,2.475s0.369,1.818,1.025,2.475l1.102,1.102L67.193,70.969l-0.559-0.559  c-1.367-1.366-3.583-1.366-4.95,0l-49.218,49.219c-2.848,2.848-4.416,6.634-4.416,10.661s1.568,7.813,4.416,10.661  s6.634,4.417,10.662,4.417c4.028,0,7.814-1.569,10.662-4.417l49.218-49.218c0.656-0.656,1.025-1.546,1.025-2.475  s-0.369-1.818-1.025-2.475l-0.56-0.56L94.86,73.813l1.829,1.829c1.313,1.313,3.638,1.313,4.949,0l5.882-5.882l0.144-0.053  c2.396-0.884,5.113-0.287,6.979,1.579c1.655,1.655,2.308,4.089,1.7,6.35l-0.493,1.838c-0.323,1.208,0.021,2.497,0.906,3.382  l10.002,10.003c0.656,0.656,1.546,1.025,2.475,1.025s1.818-0.369,2.475-1.025l9.457-9.457c0.051-0.051,0.101-0.103,0.147-0.156  c0.054-0.047,0.105-0.096,0.156-0.147l9.457-9.456c0.656-0.657,1.025-1.547,1.025-2.475S151.581,69.349,150.925,68.692z   M28.84,136.002c-1.525,1.525-3.554,2.366-5.712,2.366s-4.186-0.841-5.711-2.366c-1.526-1.526-2.366-3.555-2.366-5.712  s0.84-4.186,2.366-5.712l46.743-46.743l11.424,11.424L28.84,136.002z M77.499,81.274l-5.355-5.355l12.411-12.411l5.356,5.356  L77.499,81.274z M136.518,78.149c-0.051,0.051-0.101,0.103-0.147,0.157c-0.054,0.047-0.105,0.097-0.156,0.147l-6.982,6.981  l-6.098-6.099c1.2-4.637-0.152-9.608-3.602-13.058c-3.729-3.729-9.339-4.963-14.287-3.139l-0.864,0.318  c-0.477,0.175-0.908,0.451-1.267,0.81l-3.951,3.951l-1.827-1.827c-0.001-0.001-0.001-0.002-0.002-0.002L87.029,56.083c0,0,0,0,0,0  l-1.101-1.101l9.71-9.71c1.367-1.367,1.352-3.598-0.016-4.965c-8.94-8.942-22.088-12.479-34.307-9.229l-0.41,0.109  c-0.599,0.157-1.241-0.014-1.678-0.451c-0.588-0.588-0.546-1.26-0.469-1.608c0.078-0.348,0.324-0.975,1.104-1.258l12.486-4.535  c10.391-3.774,22.157-1.162,29.973,6.655l18.479,18.479c-1.189,4.611,0.138,9.595,3.601,13.058  c3.393,3.391,8.362,4.742,12.999,3.542l6.099,6.099L136.518,78.149z"/><text x="0" y="175" fill="#000000" font-size="5px" font-weight="bold" font-family="'Helvetica Neue', Helvetica, Arial-Unicode, Arial, Sans-serif">Created by Symbolon</text><text x="0" y="180" fill="#000000" font-size="5px" font-weight="bold" font-family="'Helvetica Neue', Helvetica, Arial-Unicode, Arial, Sans-serif">from the Noun Project</text></svg>