<svg xmlns="http://www.w3.org/2000/svg" xmlns:xlink="http://www.w3.org/1999/xlink" viewBox="0 0 377 400" version="1.1" xml:space="preserve" style="" x="0px" y="0px" fill-rule="evenodd" clip-rule="evenodd" stroke-linejoin="round" stroke-miterlimit="1.41421"><g transform="matrix(1,0,0,1,-206.281,-1177.1)"><g transform="matrix(4.16667,0,0,4.16667,0,0)"><path d="M125.76,304.819L122.433,302.236C121.654,301.631 120.441,301.838 119.424,302.639C112.255,303.677 112.815,294.349 109.48,291.758C106.479,289.428 103.388,286.253 99.408,284.684C88.767,280.491 78.424,283.148 70.59,285.947L71.01,287.645C71.01,287.645 80.334,287.205 87.572,292.826C91.173,295.622 88.293,299.33 86.165,302.071L86.109,302.142L95.697,309.588L95.748,309.513C97.71,306.988 99.484,304.66 100.589,303.279C103.26,299.949 111.66,308.423 112.008,312.201C111.495,313.377 111.602,314.588 112.375,315.188L115.701,317.771C116.69,318.539 118.379,318.017 119.475,316.607L125.566,308.763C126.661,307.353 126.747,305.587 125.76,304.819" style="" fill="black" fill-rule="nonzero"/></g><g transform="matrix(4.16667,0,0,4.16667,0,0)"><path d="M50.885,347.502C49.21,349.658 49.039,352.328 50.503,353.465L57.24,358.697C58.704,359.834 61.248,359.008 62.923,356.852L94.183,311.773L84.482,304.239L50.885,347.502Z" style="" fill="black" fill-rule="nonzero"/></g><g transform="matrix(4.16667,0,0,4.16667,0,0)"><path d="M138.481,324.693L119.815,324.693C119.082,324.693 118.488,325.287 118.488,326.02C118.488,326.754 119.082,327.347 119.815,327.347L127.817,327.347L127.821,351.734L129.144,359.207L130.474,351.733L130.47,327.347L138.481,327.347C139.213,327.347 139.808,326.754 139.808,326.02C139.808,325.287 139.213,324.693 138.481,324.693" style="" fill="black" fill-rule="nonzero"/></g></g><text x="0" y="335" fill="#000000" font-size="5px" font-weight="bold" font-family="'Helvetica Neue', Helvetica, Arial-Unicode, Arial, Sans-serif">Created by Martin Baudin</text><text x="0" y="340" fill="#000000" font-size="5px" font-weight="bold" font-family="'Helvetica Neue', Helvetica, Arial-Unicode, Arial, Sans-serif">from the Noun Project</text></svg>