<svg width="100" height="100" viewBox="0 0 100 100" fill="none" xmlns="http://www.w3.org/2000/svg">
<g clip-path="url(#clip0)">
<path fill-rule="evenodd" clip-rule="evenodd" d="M8.0107 0.19135L10.0744 0.378955L12.5573 0.665449L14.5027 1.05452C14.8473 1.12344 15.1851 1.2225 15.5124 1.35055L17.3052 2.05207L20.0275 3.49332C20.4272 3.70494 20.813 3.96494 21.1637 4.28081C22.1088 5.13228 22.8508 5.92131 23.4079 6.83229C23.9716 7.75409 24.3141 8.74789 24.5367 9.9736C24.5954 10.2969 24.6166 10.6153 24.6166 10.9174V13.2814C24.6166 14.1297 24.4368 14.9683 24.089 15.7418L23.645 17.2513L23.2618 18.6882L22.6809 20.2374L22.2068 21.47L21.6161 22.8483L20.8463 24.1954L20.1757 25.4407L19.3723 26.6458L18.4247 27.783L17.7191 28.7532L17.0054 29.913L16.4714 30.8919L15.7378 32.4509L15.7364 32.4538L15.0933 33.8319L14.4448 35.4067L13.7048 37.1641L13.1639 38.6067L12.709 40.1534L12.249 41.8092L11.8883 43.3423L11.6178 45.0556L11.4391 46.7534V49.9756C11.4391 50.4292 11.5092 50.8547 11.6581 51.2334C12.0643 52.2662 12.4855 52.9924 13.0525 53.5859C13.6213 54.1815 14.3918 54.7007 15.5792 55.2337C16.0015 55.4233 16.4841 55.514 16.9968 55.514H26.2889L28.0326 55.7077L29.6552 55.8987L31.2513 56.1979L31.8946 56.4124C32.7941 56.7122 33.5908 57.2594 34.1936 57.9913C34.6597 58.5573 35.0026 59.2235 35.1814 59.9459C35.7744 62.3412 36.083 64.1041 36.2832 66.1736C36.8707 65.4871 37.7439 65.0467 38.7302 65.0467H40.9191C41.3675 65.0467 41.824 65.104 42.2701 65.2308C44.55 65.879 46.2854 66.6332 47.4731 67.8978C48.6884 69.1918 49.2006 70.8758 49.3797 73.0681L49.383 73.1088V77.1682L49.383 77.1705C49.3754 80.6064 49.1055 82.9161 48.3308 85.4897C47.5978 87.9248 45.2738 89.3832 42.853 89.3832H13.0559V87.3832H42.853C44.5165 87.3832 45.9714 86.3892 46.4157 84.9132C47.1176 82.5815 47.3756 80.4775 47.383 77.1677C47.383 77.1671 47.383 77.1666 47.383 77.166L47.383 73.1909C47.2182 71.229 46.781 70.0824 46.0153 69.267C45.2167 68.4167 43.9295 67.7819 41.7232 67.1546C41.4695 67.0825 41.1983 67.0467 40.9191 67.0467H38.7302C37.9998 67.0467 37.433 67.6841 37.5183 68.4095C37.5564 68.733 37.5474 69.1863 37.4226 69.5784C37.3658 69.757 37.2332 70.0927 36.9099 70.329C36.7284 70.4617 36.4986 70.5527 36.2378 70.5603C35.9863 70.5677 35.7705 70.496 35.6057 70.4094C35.5567 70.3837 35.5112 70.3565 35.4691 70.3289C34.619 69.772 34.4755 68.7711 34.4412 68.2434C34.2519 65.3299 33.9776 63.406 33.24 60.4266C33.1355 60.0046 32.9329 59.6066 32.6497 59.2627C32.2859 58.821 31.805 58.4907 31.2622 58.3098L30.7484 58.1385L29.3537 57.877L27.8053 57.6948L27.7989 57.6941L26.1781 57.514H16.9968C16.2537 57.514 15.4835 57.383 14.7602 57.0583C13.4277 56.4602 12.4113 55.8103 11.6062 54.9674C10.7991 54.1225 10.2592 53.1409 9.79689 51.9654C9.53998 51.3121 9.43905 50.6309 9.43905 49.9756V46.6484L9.63417 44.7948L9.92439 42.9567L10.3113 41.3123L10.786 39.6035L11.2657 37.9726L11.8462 36.4246L12.5985 34.6379L12.6015 34.6306L13.2615 33.0278L13.9254 31.6051L13.9268 31.6022L14.6871 29.9865L15.2746 28.9093L16.0562 27.6392L16.846 26.5533L17.7675 25.4475L18.4594 24.4096L19.0973 23.225L19.8228 21.9553L20.3536 20.7168L20.8127 19.5233L21.3546 18.078L21.7191 16.7113L22.2099 15.0428L22.2581 14.9366C22.4944 14.4168 22.6166 13.8524 22.6166 13.2814V10.9174C22.6166 10.7072 22.6017 10.5117 22.5689 10.3309C22.379 9.28487 22.1068 8.53827 21.7016 7.87568C21.2898 7.20228 20.7088 6.56295 19.825 5.76674C19.6107 5.57371 19.364 5.40502 19.0917 5.2609L16.4702 3.873L14.7836 3.21304C14.5654 3.12767 14.3402 3.06163 14.1104 3.01568L12.246 2.6428L9.86917 2.36855L7.81618 2.18191L5.94702 1.99496L6.14603 0.00488281L8.0107 0.19135Z" fill="black"/>
<path d="M11.6541 100.439L15.112 89.5981H20.0653L14.084 100.626L11.6541 100.439Z" fill="black"/>
<path fill-rule="evenodd" clip-rule="evenodd" d="M14.7466 89.0981H20.9052L14.3688 101.15L10.9856 100.889L14.7466 89.0981ZM15.4773 90.0981L12.3223 99.9892L13.7989 100.103L19.2252 90.0981H15.4773Z" fill="black"/>
<path d="M41.0933 90.0653L45.0185 89.8784L44.1774 101H42.7755L41.0933 90.0653Z" fill="black"/>
<path fill-rule="evenodd" clip-rule="evenodd" d="M45.5598 89.3521L44.641 101.5H42.3466L40.5146 89.5923L45.5598 89.3521ZM41.672 90.5383L43.2045 100.5H43.7138L44.4773 90.4047L41.672 90.5383Z" fill="black"/>
<path fill-rule="evenodd" clip-rule="evenodd" d="M69.3296 3.17185C69.2155 3.16086 69.1006 3.16111 68.9865 3.17261L66.8977 3.38303C66.7918 3.39369 66.6871 3.414 66.5849 3.44369L64.629 4.01188C64.4412 4.06643 64.2639 4.15208 64.1044 4.26525L52.3404 12.6134C52.0344 12.8306 51.8062 13.1404 51.6897 13.4971L51.1126 15.2637C50.59 16.8632 49.1729 18.0038 47.4987 18.1724L44.9253 18.4317C44.6219 18.4622 44.3317 18.5716 44.0836 18.7488L42.9234 19.5775C42.0785 20.181 41.9419 21.3833 42.6299 22.1611L46.145 26.1346C46.7575 26.827 47.803 26.9236 48.532 26.355L50.3754 24.9172C50.4778 24.8373 50.532 24.7103 50.5187 24.581C50.4992 24.3915 50.4986 24.2006 50.5169 24.011L50.6329 22.8063C50.6946 22.1654 50.8999 21.4919 51.3217 20.9005C51.8421 20.1707 52.429 19.5488 53.2381 19.1583C54.0443 18.7693 54.9263 18.6796 55.9059 18.729L55.9344 18.7304L56.3034 18.766C56.9571 18.8289 57.5874 19.0425 58.1448 19.3901L59.3024 20.1119C59.5182 20.2465 59.7215 20.4002 59.9099 20.5711L59.9875 20.6415C60.561 21.162 61.4085 21.2437 62.0708 20.8421L62.3509 20.6723L66.7974 17.4962L67.7101 16.7478L65.9966 15.0923L64.2337 12.965C63.915 12.5805 63.7628 12.0849 63.8107 11.5879C63.8585 11.0908 64.1025 10.6334 64.4887 10.3167L64.7486 10.1036C64.8852 9.99161 65.0325 9.89337 65.1884 9.81031L66.4515 9.1372C66.7104 8.99924 66.9829 8.88846 67.2646 8.80663L69.7134 8.09524L72.1052 7.57995C72.4224 7.51162 72.7464 7.47983 73.0708 7.48521L74.9356 7.51613C75.3269 7.52261 75.7154 7.58312 76.0901 7.69592L77.9643 8.26006C78.0741 8.29311 78.1868 8.31529 78.301 8.32628L78.7618 8.37065C79.1379 8.40686 79.5006 8.52856 79.8223 8.72635L80.4395 8.22023C80.4398 8.22001 80.44 8.21974 80.4402 8.21943C80.4404 8.2191 80.4405 8.21873 80.4405 8.21835L80.4905 7.69992C80.4905 7.69918 80.4903 7.69845 80.4898 7.69788L80.4831 7.68973C80.4811 7.6874 80.4789 7.68539 80.4763 7.68379L79.7151 7.20915L75.7423 5.27509L73.2995 4.01974L71.6909 3.45118C71.5566 3.40374 71.4171 3.37285 71.2754 3.35921L69.3296 3.17185ZM67.3722 20.1579L64.8892 21.9315L69.855 27.5987L72.3602 25.7425L67.3722 20.1579ZM74.205 25.9314L74.9491 26.9358L70.4237 30.2887C70.423 30.2893 70.4222 30.2898 70.4215 30.2904C70.1125 30.524 70.0741 30.9743 70.3396 31.257L90.2133 52.408C90.4464 52.6561 90.7477 52.8295 91.0793 52.9064C91.3332 52.9653 91.5971 52.9658 91.8512 52.9078L92.4078 52.7809C92.5589 52.7465 92.7049 52.692 92.8417 52.6191L93.8897 52.0607C93.9913 52.0065 94.0873 51.9425 94.1763 51.8695L94.7432 51.4046C94.8769 51.295 94.9937 51.1662 95.0896 51.0223L95.4113 50.5399C95.5686 50.3039 95.6652 50.0327 95.6924 49.7504C95.7033 49.637 95.7029 49.5229 95.6913 49.4096L95.6577 49.0822C95.6201 48.7167 95.4684 48.3722 95.224 48.0977L76.4574 27.0126C76.0803 26.589 75.4361 26.5384 74.9975 26.898L74.205 25.9314ZM68.0373 29.3177L62.7534 23.2874C61.2609 23.89 59.5284 23.601 58.3073 22.4928L58.2297 22.4224C58.1522 22.352 58.0685 22.2887 57.9796 22.2333L56.822 21.5114C56.5925 21.3683 56.333 21.2804 56.0638 21.2545L55.7525 21.2245C55.0021 21.1892 54.5997 21.2772 54.3248 21.4099C54.0494 21.5427 53.7584 21.7894 53.357 22.3521C53.2358 22.5221 53.1493 22.756 53.1214 23.0459L53.0054 24.2506C53.003 24.2755 53.003 24.3005 53.0056 24.3254C53.1069 25.3109 52.6941 26.2792 51.9129 26.8885L50.0695 28.3263C48.2992 29.7071 45.7601 29.4727 44.2725 27.7911L40.7574 23.8175C39.0865 21.9287 39.4183 19.0089 41.4703 17.5432L42.6305 16.7145C43.2331 16.284 43.9378 16.0185 44.6747 15.9443L47.2481 15.685C47.9375 15.6156 48.521 15.1459 48.7362 14.4873L49.3133 12.7208C49.5963 11.8544 50.1503 11.1021 50.8936 10.5746L62.6576 2.22644C63.0449 1.9516 63.4755 1.74361 63.9316 1.61113L65.8875 1.04293C66.1357 0.970832 66.39 0.921522 66.6471 0.895616L68.7359 0.685195C69.0129 0.657286 69.2921 0.656671 69.5692 0.683359L71.515 0.870719C71.8592 0.903857 72.198 0.978867 72.524 1.09409L74.2919 1.71894L76.8609 3.03915L80.9269 5.01859L81.7991 5.56241C82.0293 5.70596 82.2349 5.88562 82.408 6.0945L82.4147 6.10265C82.8397 6.61548 83.0428 7.27655 82.9789 7.93953L82.929 8.45797C82.8652 9.12094 82.5397 9.73113 82.0247 10.1534L81.2853 10.7597C80.5296 11.3794 79.4629 11.4484 78.6336 10.9313L78.5171 10.8587L78.0614 10.8148C77.7842 10.7881 77.5103 10.7342 77.2437 10.654L75.3695 10.0898C75.2152 10.0434 75.0552 10.0185 74.8941 10.0158L73.0293 9.98487C72.8958 9.98265 72.7624 9.99574 72.6318 10.0239L70.3262 10.5206L67.962 11.2074C67.846 11.2411 67.7338 11.2867 67.6272 11.3435L66.5933 11.8944L67.8332 13.3905L69.4908 14.9921C70.3234 15.7964 70.478 17.0743 69.8614 18.054C69.7249 18.2708 69.5553 18.4649 69.3586 18.629L74.4792 24.3619C75.8056 23.892 77.3374 24.2411 78.3249 25.3505L97.0915 46.4355C97.6849 47.1022 98.0533 47.9388 98.1446 48.8267L98.1782 49.154C98.2068 49.4319 98.2077 49.7119 98.1809 49.99C98.1142 50.6826 97.8773 51.348 97.4912 51.9269L97.1696 52.4093C96.9366 52.7587 96.6531 53.0716 96.3284 53.3379L95.7614 53.8027C95.5453 53.98 95.3121 54.1355 95.0654 54.267L94.0174 54.8254C93.6851 55.0025 93.3307 55.1346 92.9636 55.2184L92.407 55.3453C91.7841 55.4873 91.137 55.4861 90.5146 55.3418C89.7016 55.1533 88.9628 54.7281 88.3914 54.1199L68.5177 32.9689C67.5569 31.9462 67.4193 30.4694 68.0373 29.3177Z" fill="black"/>
</g>
<defs>
<clipPath id="clip0">
<rect width="100" height="100" fill="white"/>
</clipPath>
</defs>
</svg>
